<svg xmlns="http://www.w3.org/2000/svg" width="64" height="64" viewBox="0 0 64 64" role="img" aria-label="AP portfolio icon">
  <defs>
    <linearGradient id="bg" x1="10" y1="8" x2="54" y2="58" gradientUnits="userSpaceOnUse">
      <stop stop-color="#161616"/>
      <stop offset="1" stop-color="#050505"/>
    </linearGradient>
    <linearGradient id="accent" x1="18" y1="12" x2="48" y2="54" gradientUnits="userSpaceOnUse">
      <stop stop-color="#ff4d4d"/>
      <stop offset="1" stop-color="#b91c1c"/>
    </linearGradient>
    <linearGradient id="split-a" x1="10" y1="16" x2="33" y2="48" gradientUnits="userSpaceOnUse">
      <stop offset="0" stop-color="#ffffff"/>
      <stop offset=".5" stop-color="#ffffff"/>
      <stop offset=".5" stop-color="#ef4444"/>
      <stop offset="1" stop-color="#b91c1c"/>
    </linearGradient>
    <linearGradient id="split-p" x1="38" y1="16" x2="56" y2="48" gradientUnits="userSpaceOnUse">
      <stop offset="0" stop-color="#ffffff"/>
      <stop offset=".5" stop-color="#ffffff"/>
      <stop offset=".5" stop-color="#ef4444"/>
      <stop offset="1" stop-color="#b91c1c"/>
    </linearGradient>
    <filter id="soft-glow" x="-20%" y="-20%" width="140%" height="140%" color-interpolation-filters="sRGB">
      <feDropShadow dx="0" dy="0" stdDeviation="2.4" flood-color="#ef4444" flood-opacity=".45"/>
    </filter>
  </defs>
  <rect width="64" height="64" rx="16" fill="url(#bg)"/>
  <path fill="none" stroke="#2a2a2a" stroke-width="1.25" d="M16 49.5h32M14.5 16h35"/>
  <g filter="url(#soft-glow)">
    <path
      fill="none"
      stroke="url(#split-a)"
      stroke-linecap="round"
      stroke-linejoin="round"
      stroke-width="5.2"
      d="M10.5 48 21.7 16 33 48M15.5 38.3h12.3"
    />
    <path
      fill="none"
      stroke="url(#split-p)"
      stroke-linecap="round"
      stroke-linejoin="round"
      stroke-width="5.2"
      d="M38 48V16h9.2c5.1 0 8.8 3.7 8.8 8.8s-3.7 8.7-8.8 8.7H38"
    />
  </g>
  <path
    fill="none"
    stroke="#ffffff"
    stroke-linecap="round"
    stroke-width="1.8"
    opacity=".35"
    d="M21 20.4 14.1 41.5M42.5 20.5h4.2c2.6 0 4.5 1.8 4.5 4.2"
  />
</svg>
